<svg width="68" height="49" viewBox="0 0 68 49" fill="none" xmlns="http://www.w3.org/2000/svg">
<path d="M32.0764 0.457031C32.1938 2.6945 32.1938 2.6945 32.3135 4.97716C32.9005 4.65752 32.9005 4.65752 33.4992 4.33143C33.4992 16.4066 33.4992 28.4818 33.4992 40.923C28.4303 43.3445 28.4303 43.3445 25.9107 44.3669C25.9107 42.9463 25.9107 41.5256 25.9107 40.062C25.4411 40.2751 25.4411 40.2751 24.9621 40.4925C24.7273 40.4925 24.4925 40.4925 24.2507 40.4925C24.2063 36.1124 24.1729 31.7324 24.1524 27.3522C24.1426 25.3184 24.1293 23.2846 24.1075 21.2509C24.0886 19.478 24.0764 17.7053 24.0722 15.9324C24.0697 14.9938 24.0639 14.0554 24.0501 13.1168C24.0372 12.2329 24.0332 11.3492 24.0361 10.4652C24.0356 10.1413 24.0318 9.81735 24.0245 9.4935C23.9721 7.04593 23.9721 7.04593 24.6687 6.17854C25.1422 5.79869 25.6114 5.49338 26.1478 5.19241C26.4662 4.92775 26.783 4.66149 27.0964 4.39197C27.2529 4.25795 27.4094 4.12394 27.5707 3.98586C27.7272 3.85129 27.8837 3.71672 28.045 3.57807C31.675 0.457031 31.675 0.457031 32.0764 0.457031Z" fill="#00C853"/>
<path d="M20.2189 15.9546C20.2189 17.4462 20.2189 18.9379 20.2189 20.4747C20.6885 20.1906 21.158 19.9065 21.6418 19.6137C21.6418 28.6346 21.6418 37.6555 21.6418 46.9498C19.1022 48.2304 19.1022 48.2304 17.8475 48.026C17.1406 47.7281 16.5066 47.3585 15.8614 46.9632C15.6042 46.8119 15.6042 46.8119 15.3417 46.6576C14.1214 45.9354 14.1214 45.9354 13.8161 45.6583C13.7772 44.9552 13.7556 44.2526 13.7382 43.5487C13.6627 42.8198 13.6627 42.8198 12.9878 42.5075C12.2347 41.8636 12.2431 41.5288 12.2088 40.623C12.2078 40.439 12.2069 40.2549 12.2059 40.0653C12.2004 39.8699 12.1949 39.6745 12.1892 39.4731C12.1731 38.8263 12.1662 38.1798 12.1607 37.5328C12.1545 37.0818 12.1482 36.6308 12.1419 36.1797C12.1305 35.233 12.1245 34.2864 12.1214 33.3397C12.1162 32.1315 12.0902 30.9246 12.0591 29.7168C12.0387 28.7842 12.0334 27.8519 12.032 26.9191C12.0289 26.4743 12.0203 26.0294 12.0059 25.5846C11.8968 21.9343 11.8968 21.9343 13.1117 20.7192C13.7928 20.1455 14.5216 19.6643 15.3036 19.2106C15.9048 18.8545 16.4501 18.4413 17.0027 18.0263C17.1882 17.8937 17.3738 17.7611 17.565 17.6244C18.0671 17.2588 18.5507 16.8794 19.0332 16.4927C19.7446 15.9546 19.7446 15.9546 20.2189 15.9546Z" fill="#00C853"/>
<path d="M8.36153 24.5645C8.47892 26.8019 8.47892 26.8019 8.59867 29.0846C9.1856 28.7649 9.1856 28.7649 9.78439 28.4388C9.78439 33.34 9.78439 38.2411 9.78439 43.2907C7.98479 42.474 6.26445 41.655 4.55242 40.7078C4.30496 40.5821 4.0575 40.4564 3.80254 40.3269C3.07867 39.9203 2.51591 39.5714 1.95866 38.9858C1.77375 38.2327 1.74824 37.5924 1.798 36.8233C1.79774 36.1419 1.79774 36.1419 1.13972 35.7447C0.940426 35.6067 0.741134 35.4688 0.535803 35.3267C0.0295591 33.77 0.176698 31.7384 0.535803 30.1608C1.22086 29.1855 2.04423 28.7726 3.14438 28.2236C3.59121 27.9043 4.03109 27.5768 4.46349 27.2416C5.33638 26.594 6.21001 25.9474 7.08688 25.3044C7.28069 25.162 7.4745 25.0197 7.67418 24.873C8.12439 24.5645 8.12439 24.5645 8.36153 24.5645Z" fill="#00C853"/>
<path d="M36.582 13.3716C39.902 15.0935 39.902 15.0935 40.6135 15.524C40.6596 15.9571 40.6596 15.9571 40.6098 16.4867C40.4939 18.2865 40.4939 18.2865 40.8506 20.0442C41.3743 20.5221 41.9614 20.7488 42.644 20.9993C43.3312 21.2527 43.9014 21.4804 44.4078 21.9814C44.8814 23.4993 44.6236 25.172 44.4078 26.7167C44.001 26.8441 44.001 26.8441 43.5861 26.974C42.4693 27.3879 41.3987 27.7963 40.6135 28.6539C40.2975 29.6579 40.3497 30.6579 40.4556 31.6897C40.5036 32.3003 40.5314 32.7924 40.3763 33.3893C39.7453 33.975 39.0454 34.3198 38.242 34.6808C38.0122 34.8139 37.7823 34.9471 37.5454 35.0844C37.0563 35.3265 37.0563 35.3265 36.582 35.3265C36.582 28.0814 36.582 20.8363 36.582 13.3716Z" fill="white"/>
<path d="M32.0764 0.457031C32.132 1.24602 32.1653 2.0346 32.195 2.82472C32.2188 3.15726 32.2188 3.15726 32.2431 3.49652C32.2697 4.44427 32.288 5.13148 31.6785 5.92684C31.2003 6.36335 30.7114 6.74859 30.1792 7.1296C29.8672 7.37989 29.5559 7.631 29.2455 7.88296C28.7544 8.27784 28.269 8.6446 27.7299 8.98488C26.8695 9.56722 26.2512 10.0254 25.9536 10.9834C25.8825 11.7454 25.879 12.4859 25.8988 13.2505C25.8986 13.5402 25.8975 13.8299 25.8955 14.1196C25.8932 14.7405 25.8975 15.3609 25.9072 15.9817C25.9225 16.9631 25.9226 17.9442 25.9209 18.9257C25.9198 20.477 25.9288 22.0282 25.9421 23.5794C25.9658 26.3605 25.9756 29.1415 25.9769 31.9226C25.9778 32.8985 25.9842 33.8742 25.995 34.8501C26.0009 35.4559 26.003 36.0617 26.0041 36.6676C26.0062 37.0831 26.013 37.4986 26.02 37.9141C26.0198 38.1607 26.0196 38.4072 26.0194 38.6612C26.0213 38.8758 26.0232 39.0904 26.0251 39.3116C25.9107 39.8467 25.9107 39.8467 25.474 40.2437C24.9621 40.4925 24.9621 40.4925 24.2507 40.4925C24.2063 36.1124 24.1729 31.7324 24.1524 27.3522C24.1426 25.3184 24.1293 23.2846 24.1075 21.2509C24.0886 19.478 24.0764 17.7053 24.0722 15.9324C24.0697 14.9938 24.0639 14.0554 24.0501 13.1168C24.0372 12.2329 24.0332 11.3492 24.0361 10.4652C24.0356 10.1413 24.0318 9.81735 24.0245 9.4935C23.9721 7.04593 23.9721 7.04593 24.6687 6.17854C25.1422 5.79869 25.6114 5.49338 26.1478 5.19241C26.4662 4.92775 26.783 4.66149 27.0964 4.39197C27.2529 4.25795 27.4094 4.12394 27.5707 3.98586C27.7272 3.85129 27.8837 3.71672 28.045 3.57807C31.675 0.457031 31.675 0.457031 32.0764 0.457031Z" fill="#009050"/>
<path d="M20.2191 15.9546C20.7426 19.8663 20.7426 19.8663 19.9353 21.1365C19.1921 21.9026 18.2896 22.4576 17.3464 23.0039C16.6533 23.4207 16.0465 23.9104 15.4169 24.4029C14.3511 25.2101 14.3511 25.2101 13.8162 25.2101C13.8162 30.9636 13.8162 36.7171 13.8162 42.6449C12.6305 42.2144 12.6305 42.2144 12.3934 41.9991C12.3531 41.3776 12.3283 40.7609 12.3138 40.1386C12.3084 39.9433 12.303 39.748 12.2975 39.5467C12.2506 37.737 12.2233 35.927 12.2019 34.117C12.1872 32.9011 12.1663 31.6859 12.1299 30.4704C12.0948 29.2949 12.0763 28.1201 12.0691 26.9443C12.0636 26.4976 12.0524 26.0509 12.0351 25.6044C11.8995 21.9316 11.8995 21.9316 13.1098 20.7177C13.7909 20.1435 14.5202 19.6631 15.3033 19.2103C15.9051 18.8548 16.4502 18.4415 17.0028 18.0263C17.1884 17.8937 17.3739 17.7611 17.5651 17.6244C18.0673 17.2588 18.5509 16.8794 19.0334 16.4927C19.7448 15.9546 19.7448 15.9546 20.2191 15.9546Z" fill="#009050"/>
<path d="M45.9645 27.5708C46.7741 27.8817 47.5222 28.2589 48.2766 28.6672C48.4296 28.7484 48.5826 28.8295 48.7403 28.9131C49.1152 29.1123 49.489 29.3133 49.8625 29.5147C50.2107 33.366 50.2107 33.366 49.4457 34.3628C48.8856 34.6885 48.351 34.9019 47.7282 35.1111C47.4291 35.2867 47.1323 35.4658 46.8389 35.6492C46.0682 35.9721 46.0682 35.9721 45.5356 35.8325C44.7194 35.4689 43.9336 35.0691 43.1484 34.6537C42.6251 34.3784 42.1017 34.1032 41.5625 33.8196C41.5625 32.399 41.5625 30.9784 41.5625 29.5147C42.1641 29.1906 42.7657 28.8666 43.3855 28.5327C43.5728 28.4296 43.7601 28.3265 43.9531 28.2203C45.1756 27.5795 45.1756 27.5795 45.9645 27.5708Z" fill="white"/>
<path d="M45.771 12.7589C46.5639 13.03 47.28 13.4149 48.009 13.8023C48.2371 13.9213 48.2371 13.9213 48.4699 14.0428C49.5878 14.63 49.5878 14.63 49.8617 14.8785C49.8822 15.199 49.8871 15.5203 49.8848 15.8412C49.8841 16.0348 49.8833 16.2283 49.8825 16.4277C49.8795 16.733 49.8795 16.733 49.8765 17.0444C49.8754 17.2488 49.8744 17.4531 49.8733 17.6637C49.8705 18.1703 49.8665 18.6768 49.8617 19.1834C49.262 19.5208 48.6596 19.8513 48.0535 20.1789C47.8844 20.2749 47.7154 20.3709 47.5412 20.4698C46.2619 21.1516 46.2619 21.1516 45.3337 21.0037C45.1063 20.9002 44.8789 20.7967 44.6445 20.6901C44.2419 20.554 44.2419 20.554 43.8312 20.4152C42.1488 19.6794 42.1488 19.6794 41.5617 18.9682C41.071 17.6714 41.1271 16.1842 41.5617 14.8785C42.157 14.1537 42.781 13.9044 43.696 13.5871C43.9999 13.4159 44.3016 13.2414 44.6001 13.0624C45.356 12.7261 45.356 12.7261 45.771 12.7589Z" fill="white"/>
<path d="M50.4861 20.1525C50.6716 20.2588 50.8572 20.3651 51.0484 20.4746C51.2893 20.5947 51.5301 20.7149 51.7783 20.8386C52.0265 20.9715 52.2748 21.1044 52.5305 21.2414C52.7812 21.3748 53.0318 21.5083 53.2901 21.6458C53.8941 21.9813 53.8941 21.9813 54.1312 22.1965C54.4273 23.5773 54.5752 25.1418 54.1312 26.5014C53.2645 27.5396 51.911 28.0626 50.5741 28.4386C49.4704 28.4201 48.5806 27.8502 47.6543 27.3489C47.1309 27.0693 46.6076 26.7896 46.0684 26.5014C46.0684 25.0098 46.0684 23.5181 46.0684 21.9813C46.9708 21.4885 46.9708 21.4885 47.8914 20.9858C48.0787 20.8807 48.266 20.7757 48.459 20.6674C49.6954 20.015 49.6954 20.015 50.4861 20.1525Z" fill="white"/>
<path d="M40.7392 5.74127C40.9324 5.84421 41.1256 5.94715 41.3247 6.05321C41.4573 6.11906 41.5899 6.1849 41.7265 6.25274C42.1749 6.47599 42.617 6.70735 43.0588 6.94109C43.2118 7.02128 43.3648 7.10147 43.5224 7.18408C43.8969 7.38048 44.2708 7.57773 44.6447 7.77516C45.2056 11.3965 45.2056 11.3965 44.3185 12.4775C43.2132 13.3475 41.8459 14.0462 40.3613 13.9895C37.4851 13.2154 37.4851 13.2154 36.5818 12.08C36.0102 10.6502 35.9861 8.98515 36.5818 7.55992C37.4721 6.51404 39.2537 5.44788 40.7392 5.74127Z" fill="white"/>
<path d="M41.3249 35.1113C41.9321 35.3677 42.5011 35.6715 43.0738 35.9857C43.3017 36.1074 43.3017 36.1074 43.5342 36.2316C43.9056 36.4304 44.2754 36.6316 44.6449 36.8332C44.9931 40.6845 44.9931 40.6845 44.2281 41.6813C43.668 42.007 43.1334 42.2204 42.5106 42.4296C42.2115 42.6052 41.9148 42.7843 41.6213 42.9677C40.8506 43.2906 40.8506 43.2906 40.3106 43.1342C40.0975 43.0437 39.8844 42.9533 39.6649 42.8601C39.4042 42.7718 39.1434 42.6836 38.8747 42.5927C37.1766 41.8696 37.1766 41.8696 36.5821 41.1381C36.086 39.7751 36.1414 38.2049 36.5821 36.8332C37.1821 36.1006 37.7861 35.847 38.7163 35.5418C38.9267 35.4041 39.137 35.2665 39.3537 35.1247C40.1178 34.8061 40.51 34.9283 41.3249 35.1113Z" fill="white"/>
<path d="M8.12412 24.7798C8.51011 29.1606 8.51011 29.1606 7.68782 30.3745C7.0683 30.8026 6.44031 31.1216 5.75269 31.4524C5.28097 31.7894 4.81645 32.1349 4.35947 32.4882C3.18889 33.3633 3.18889 33.3633 2.60499 33.7057C2.15001 34.0111 2.15001 34.0111 2.05103 34.5221C2.04003 34.6944 2.02902 34.8667 2.01769 35.0442C2.00424 35.2182 1.99078 35.3922 1.97693 35.5714C1.97081 35.7038 1.9647 35.8361 1.9584 35.9725C0.802327 35.5689 0.802327 35.5689 0.53554 35.3268C-0.0877161 31.0581 -0.087716 31.0581 1.02557 29.4555C1.70329 28.9716 2.38926 28.6007 3.14412 28.2237C3.59584 27.8998 4.04068 27.5679 4.47805 27.2282C7.77763 24.7798 7.77763 24.7798 8.12412 24.7798Z" fill="#009050"/>
<path d="M50.7211 36.7123C51 36.8788 51 36.8788 51.2844 37.0487C51.6733 37.2018 51.6733 37.2018 52.07 37.3581C52.8044 37.9937 52.8424 38.1896 52.9149 39.0802C52.8736 39.78 52.8291 40.146 52.3294 40.6863C51.5204 41.1975 51.0405 41.3868 50.0541 41.2463C49.834 41.1398 49.6139 41.0332 49.3871 40.9234C49.1816 40.8363 48.9762 40.7492 48.7645 40.6594C48.2013 40.2776 48.2013 40.2776 48.0187 39.6873C47.9921 37.9244 47.9921 37.9244 48.5866 37.2707C49.3259 36.8132 49.8254 36.5768 50.7211 36.7123Z" fill="white"/>
<path d="M50.721 6.79327C50.9998 6.95976 50.9998 6.95976 51.2843 7.12962C51.6732 7.2828 51.6732 7.2828 52.0699 7.43906C52.7073 7.99068 52.7073 7.99068 52.7971 8.57341C52.7963 9.1736 52.7686 9.76114 52.7073 10.3586C51.9456 10.8276 51.2264 11.2113 50.3356 11.4349C49.5056 11.2143 48.878 10.8409 48.2011 10.3586C48.0895 9.47637 48.0367 8.65374 48.2011 7.77542C48.8731 7.023 49.6548 6.63197 50.721 6.79327Z" fill="white"/>
<path d="M60.7695 22.1967C60.9945 22.2633 61.2195 22.3299 61.4513 22.3985C62.0825 22.9545 62.0752 23.2152 62.1332 23.9995C62.0999 24.6683 62.0695 25.0689 61.631 25.6123C60.9335 26.1104 60.4615 26.2836 59.5688 26.3002C58.129 25.8275 58.129 25.8275 57.4491 25.2104C57.2113 24.3764 57.2003 23.6748 57.4491 22.8425C58.4071 21.8068 59.4412 21.5537 60.7695 22.1967Z" fill="white"/>
<path d="M56.028 29.7302C56.2872 29.8279 56.5465 29.9256 56.8136 30.0262C57.5418 30.6718 57.5857 30.869 57.6585 31.7618C57.6179 32.4671 57.5748 32.8282 57.0647 33.3679C56.3269 33.8278 55.8285 34.0771 54.9311 33.9414C54.7452 33.8304 54.5593 33.7194 54.3678 33.605C53.9789 33.4452 53.9789 33.4452 53.5822 33.2821C52.8703 32.681 52.8135 32.5269 52.7373 31.6811C52.7796 31.0149 52.8339 30.7024 53.3311 30.2045C54.2395 29.6476 54.9721 29.3015 56.028 29.7302Z" fill="white"/>
<path d="M56.2462 15.7335C56.6476 15.9508 57.0491 16.168 57.4505 16.3852C57.5634 17.1975 57.6139 17.9449 57.4505 18.7531C56.9138 19.3339 56.352 19.6194 55.5532 19.8294C54.9306 19.7218 54.9306 19.7218 54.3674 19.3989C54.1081 19.2835 53.8489 19.168 53.5818 19.0491C53.3714 18.9514 53.1611 18.8538 52.9444 18.7531C52.8315 17.9409 52.7796 17.1932 52.9444 16.3852C53.9338 15.3567 54.9213 15.125 56.2462 15.7335Z" fill="white"/>
<path d="M46.9117 1.35849C47.2677 1.55273 47.6204 1.75226 47.9641 1.96392C48.077 2.77618 48.1263 3.52345 47.9641 4.33183C47.431 4.9217 46.8724 5.2032 46.0668 5.40816C45.3108 5.30052 45.3108 5.30052 44.6438 4.97763C44.4188 4.91103 44.1938 4.84443 43.962 4.77582C43.458 4.33183 43.458 4.33183 43.3848 3.7634C43.3839 3.15987 43.4073 2.56558 43.458 1.96392C44.6865 1.08857 45.4472 0.675833 46.9117 1.35849Z" fill="white"/>
<path d="M46.9117 43.546C47.2677 43.7402 47.6204 43.9398 47.9641 44.1514C48.077 44.9637 48.1263 45.7109 47.9641 46.5193C47.431 47.1092 46.8724 47.3907 46.0668 47.5957C45.3108 47.488 45.3108 47.488 44.6438 47.1651C44.4188 47.0985 44.1938 47.0319 43.962 46.9633C43.458 46.5193 43.458 46.5193 43.3848 45.9509C43.3839 45.3474 43.4073 44.7531 43.458 44.1514C44.6865 43.2761 45.4472 42.8633 46.9117 43.546Z" fill="white"/>
<path d="M36.582 0.241699C37.6205 0.618717 38.4724 1.02307 39.428 1.53329C39.7417 3.92922 39.7417 3.92922 39.428 4.97752C38.6719 5.72263 37.8542 6.1209 36.8192 6.48437C36.7409 6.48437 36.6627 6.48437 36.582 6.48437C36.582 4.42429 36.582 2.36421 36.582 0.241699Z" fill="white"/>
<path d="M36.582 42.645C37.169 42.8581 37.169 42.8581 37.7679 43.0755C37.9864 43.1546 38.205 43.2337 38.4303 43.3152C38.9537 43.7213 38.9537 43.7213 39.0695 44.5378C39.0616 44.8533 39.0475 45.1687 39.0278 45.4838C39.0198 45.7259 39.0198 45.7259 39.0116 45.9728C38.9976 46.3706 38.9764 46.7681 38.9537 47.1656C38.171 47.5208 37.3884 47.8759 36.582 48.2419C36.582 46.3949 36.582 44.548 36.582 42.645Z" fill="white"/>
<path d="M58.3976 10.5732C58.6324 10.7153 58.8672 10.8573 59.1091 11.0037C59.2277 11.6226 59.2277 11.6226 59.1091 12.2953C58.5162 12.8065 58.5162 12.8065 57.9233 13.1564C56.7968 12.7527 56.7968 12.7527 56.2631 12.5106C56.1481 11.1274 56.1481 11.1274 56.6634 10.5732C57.3598 10.2998 57.6847 10.3575 58.3976 10.5732Z" fill="white"/>
<path d="M58.1617 36.4028C58.9835 36.8291 58.9835 36.8291 59.8219 37.2639C59.896 37.8693 59.896 37.8693 59.8219 38.5555C59.3179 38.986 59.3179 38.986 58.636 39.2013C57.4028 38.943 57.4028 38.943 56.9759 38.5555C56.8869 37.829 56.8869 37.829 56.9759 37.0486C57.5688 36.6316 57.5688 36.6316 58.1617 36.4028Z" fill="white"/>
<path d="M63.1417 17.4613C63.3765 17.6034 63.6112 17.7455 63.8532 17.8919C63.8976 18.6722 63.8976 18.6722 63.8532 19.3987C63.3836 19.6118 62.914 19.825 62.4302 20.0445C61.7187 19.6947 61.7187 19.6947 61.0072 19.1835C60.8589 18.5242 60.8589 18.5242 61.0072 17.8919C61.6925 17.1777 62.1801 17.1704 63.1417 17.4613Z" fill="white"/>
<path d="M63.142 28.8691C63.3768 29.0111 63.6116 29.1532 63.8535 29.2996C63.898 30.0799 63.898 30.0799 63.8535 30.8064C63.2763 31.1363 62.9861 31.2442 62.2971 31.1832C61.719 31.0217 61.719 31.0217 61.0075 30.5912C60.9037 29.9588 60.9037 29.9588 61.0075 29.2996C61.6928 28.5854 62.1804 28.5781 63.142 28.8691Z" fill="white"/>
<path d="M67.2468 22.9095C67.4571 23.0293 67.6674 23.1492 67.8841 23.2727C67.8841 23.8408 67.8841 24.409 67.8841 24.9943C67.3603 25.2829 67.0649 25.439 66.4466 25.3709C65.9872 25.2095 65.9872 25.2095 65.2759 24.7791C65.1574 24.0393 65.1574 24.0393 65.2759 23.2727C66.0164 22.6006 66.2661 22.5568 67.2468 22.9095Z" fill="white"/>
</svg>
